<!DOCTYPE svg PUBLIC "-//W3C//DTD SVG 20010904//EN" "http://www.w3.org/TR/2001/REC-SVG-20010904/DTD/svg10.dtd">
<svg version="1.0" xmlns="http://www.w3.org/2000/svg" width="1600px" height="713px" viewBox="0 0 16000 7130" preserveAspectRatio="xMidYMid meet">
<g id="layer101" fill="#010101" stroke="none">
 <path d="M3753 5730 c-33 -14 -40 -66 -12 -96 26 -28 31 -29 72 -9 28 13 256 15 1793 17 l1760 3 40 -49 c49 -61 84 -101 174 -196 38 -41 70 -77 70 -81 0 -15 -52 -28 -130 -32 -84 -5 -168 -21 -203 -39 -10 -5 -22 -6 -27 -3 -5 3 -11 1 -15 -5 -3 -5 -18 -10 -33 -10 -15 0 -51 -11 -80 -25 -30 -14 -57 -23 -61 -21 -4 3 -26 -6 -50 -20 -24 -13 -51 -24 -61 -24 -10 0 -23 -6 -29 -13 -6 -8 -30 -22 -53 -32 -24 -10 -62 -34 -85 -52 -22 -18 -53 -37 -67 -43 -14 -5 -26 -14 -26 -19 0 -5 -10 -12 -22 -15 -21 -5 -56 -35 -159 -133 -31 -29 -39 -32 -61 -24 -14 5 -41 26 -60 45 -19 20 -38 36 -42 36 -4 0 -49 36 -99 80 l-93 80 -1554 0 c-1355 0 -1557 2 -1574 15 -28 21 -52 19 -70 -7 -24 -34 -20 -64 14 -88 l30 -21 29 20 29 21 1537 0 1537 0 48 -40 c26 -22 53 -40 59 -40 6 0 11 -4 11 -10 0 -5 19 -22 43 -37 23 -16 47 -33 52 -40 6 -7 26 -25 47 -41 l36 -28 -69 -75 c-38 -41 -69 -78 -69 -83 0 -5 -17 -32 -39 -60 -21 -28 -56 -85 -78 -126 -22 -41 -44 -84 -50 -95 -35 -66 -73 -154 -73 -168 0 -8 -4 -19 -10 -22 -5 -3 -10 -15 -10 -25 0 -18 -5 -17 -52 12 -29 18 -93 65 -143 105 -49 40 -104 80 -121 88 -18 8 -34 22 -38 30 -5 13 -181 15 -1521 15 l-1516 0 -28 21 c-23 17 -33 19 -50 10 -48 -26 -51 -85 -6 -115 24 -16 27 -16 54 4 29 20 34 20 1530 20 1183 0 1506 -3 1523 -12 12 -7 62 -45 111 -85 49 -39 101 -77 116 -84 14 -8 47 -31 73 -52 l46 -39 -14 -40 c-7 -22 -11 -44 -8 -49 3 -5 2 -15 -3 -21 -12 -20 -32 -161 -39 -288 -7 -114 15 -386 37 -453 l8 -28 -37 30 c-20 16 -77 70 -127 120 -49 50 -93 91 -97 91 -12 0 -75 64 -81 83 -6 16 -88 17 -1528 17 -1507 0 -1521 0 -1549 20 l-28 20 -31 -31 c-17 -17 -31 -34 -31 -39 0 -5 14 -22 31 -39 l31 -31 28 20 c28 20 42 20 1532 20 l1504 0 50 -47 c381 -365 393 -378 394 -416 0 -11 7 -35 16 -55 39 -88 89 -190 113 -227 14 -22 26 -45 27 -51 7 -42 249 -321 334 -386 19 -14 51 -41 70 -59 45 -43 118 -96 150 -110 14 -6 39 -21 57 -35 17 -13 35 -24 39 -24 13 0 74 -51 74 -61 0 -6 11 -27 25 -47 14 -20 25 -43 25 -52 0 -8 14 -33 30 -54 17 -22 30 -46 30 -54 0 -8 13 -33 29 -57 16 -24 32 -54 36 -67 4 -12 16 -34 25 -48 10 -14 25 -43 34 -65 9 -21 24 -47 33 -57 15 -17 114 -18 2142 -18 1853 -1 2128 -3 2145 -15 28 -21 49 -19 74 8 24 26 29 66 10 85 -17 17 -73 15 -88 -3 -11 -13 -260 -15 -2130 -15 l-2118 0 -30 58 c-16 31 -46 87 -66 125 -51 96 -52 98 -74 142 -11 22 -29 57 -40 78 -21 36 -21 37 -2 37 10 0 21 -4 25 -9 3 -5 20 -13 38 -16 17 -4 46 -13 62 -20 54 -24 128 -45 155 -45 15 0 30 -3 34 -8 4 -4 17 -8 29 -8 12 -1 56 -8 97 -15 95 -17 392 -17 480 0 36 7 76 14 90 15 14 1 32 5 40 8 8 3 49 13 90 23 41 10 80 21 85 25 6 5 30 13 55 20 45 11 239 104 295 140 17 11 37 23 47 27 40 19 210 156 297 241 l96 93 25 -29 c61 -72 70 -84 70 -90 1 -4 14 -23 30 -42 17 -19 30 -38 30 -43 0 -5 18 -29 39 -53 l39 -44 1665 0 c1473 0 1666 -2 1677 -15 7 -8 28 -15 46 -15 68 0 86 92 22 114 -21 8 -32 6 -46 -7 -17 -16 -137 -17 -1680 -17 l-1661 0 -28 36 c-15 20 -47 59 -70 87 -24 28 -43 56 -43 62 0 6 -18 32 -40 59 -46 55 -47 61 -20 76 11 6 20 15 20 21 0 6 17 31 37 55 53 66 135 216 183 339 30 74 70 206 70 228 0 14 5 29 10 32 6 3 10 21 11 38 1 18 4 43 8 56 6 23 10 20 59 -46 28 -39 52 -74 52 -77 0 -4 20 -36 45 -72 25 -35 45 -67 45 -72 0 -4 11 -24 25 -45 l26 -37 1817 0 c1767 0 1818 -1 1842 -19 24 -19 25 -19 52 1 39 27 38 69 -3 99 l-31 22 -28 -22 -29 -21 -1795 0 -1796 0 -27 41 c-16 23 -35 53 -43 68 -9 14 -34 52 -55 84 -22 32 -47 71 -55 85 -8 15 -28 44 -44 65 l-29 38 -2 197 c-2 138 -8 222 -20 282 -9 47 -18 92 -20 100 -1 8 -6 23 -10 32 -4 10 -5 23 -3 29 4 11 36 -33 65 -91 7 -14 35 -52 63 -85 28 -33 55 -71 62 -85 6 -14 23 -37 37 -52 l25 -28 1942 0 c1714 0 1943 -2 1954 -15 17 -21 43 -19 74 6 30 23 33 45 10 77 -18 26 -78 31 -91 7 -8 -13 -231 -15 -1943 -13 l-1934 3 -43 60 c-23 33 -46 67 -49 75 -4 8 -19 29 -33 47 -58 72 -77 97 -91 123 -8 15 -36 56 -62 91 -27 34 -48 69 -48 76 0 7 -11 32 -25 57 -14 25 -25 52 -25 61 0 8 -13 34 -30 57 -16 22 -30 48 -30 56 0 8 -13 31 -30 52 -16 21 -30 42 -30 47 0 5 -13 24 -30 43 -16 19 -29 39 -30 43 -1 30 -337 356 -403 391 -28 16 -70 43 -92 61 -22 18 -51 36 -65 40 -14 4 -42 19 -62 31 -21 13 -40 24 -43 24 -4 0 -27 10 -53 22 -26 12 -50 21 -54 20 -4 -1 -31 10 -60 23 -29 14 -64 25 -76 25 -13 0 -38 6 -55 14 -49 20 -195 46 -264 46 -34 0 -65 5 -68 10 -3 6 -31 10 -61 10 l-54 0 -73 78 c-41 42 -104 111 -142 152 -37 41 -77 84 -87 95 -10 11 -26 30 -36 43 l-17 23 -1774 -1 c-1513 0 -1775 2 -1785 14 -15 19 -47 26 -73 16z m4227 -500 c30 -6 85 -16 122 -23 36 -7 70 -15 74 -20 4 -4 17 -7 28 -7 21 0 103 -28 163 -55 17 -8 36 -15 42 -15 11 0 43 -16 71 -36 8 -5 35 -19 60 -29 25 -11 63 -32 84 -47 21 -16 43 -28 47 -28 29 0 349 -282 349 -307 0 -5 12 -20 26 -34 52 -48 132 -166 187 -274 76 -149 117 -240 117 -257 0 -7 9 -38 20 -68 11 -30 20 -65 20 -77 0 -13 4 -31 9 -41 13 -25 32 -179 38 -309 6 -114 -20 -398 -38 -417 -5 -6 -9 -20 -9 -32 0 -22 -33 -142 -50 -179 -31 -70 -50 -119 -50 -129 0 -7 -13 -33 -30 -59 -16 -26 -30 -52 -30 -57 0 -5 -17 -35 -37 -66 -21 -31 -47 -72 -58 -90 -19 -31 -69 -92 -160 -192 -53 -59 -237 -219 -267 -232 -12 -6 -50 -28 -83 -50 -71 -46 -177 -99 -260 -130 -33 -13 -64 -27 -69 -32 -6 -4 -20 -8 -31 -8 -12 0 -48 -9 -80 -20 -32 -11 -71 -20 -87 -20 -15 0 -36 -4 -46 -9 -22 -12 -217 -31 -312 -31 -98 0 -290 19 -312 31 -10 5 -29 9 -43 9 -31 0 -165 37 -220 60 -22 10 -58 23 -80 31 -22 7 -56 22 -75 33 -19 10 -64 35 -100 54 -85 45 -191 114 -209 135 -7 9 -18 17 -23 17 -12 0 -258 245 -258 257 0 4 -13 21 -30 36 -16 16 -30 33 -30 38 0 6 -13 27 -29 47 -86 110 -231 443 -247 567 0 6 -4 17 -7 25 -18 46 -39 304 -34 415 7 135 25 281 38 307 5 10 9 28 9 40 0 13 12 55 26 93 14 39 26 77 27 85 0 8 8 29 17 45 9 17 20 43 24 59 4 17 15 41 25 55 10 14 22 37 26 49 4 13 20 43 36 67 16 24 29 46 29 50 0 4 26 42 57 84 101 135 395 414 462 438 9 4 40 21 68 39 29 19 64 36 78 40 14 3 28 10 31 15 2 5 22 16 42 24 20 9 51 23 67 30 17 7 62 23 100 35 39 11 78 25 87 31 10 5 30 9 45 9 16 0 46 5 68 11 22 6 60 15 85 19 68 12 427 11 490 0z"/>
 </g>

</svg>